# xmcd
#
# Track frame offsets:
#	150
#	23670
#	51710
#	74040
#	104053
#	126380
#	142165
#	175693
#	195273
#	213038
#
# Disc length: 3404 seconds
#
# Revision: 1
# Processed by: cddbd v1.5.1PL0 Copyright (c) Steve Scherf et al.
# Submitted via: CDex 1.50Beta5
#
DISCID=9c0d4a0a
DTITLE=天才トノサマBAND - 異形/偉業
DYEAR=1900
DGENRE=Other
TTITLE0=いざゆけMY☆LOVE
TTITLE1=人間国宝
TTITLE2=雨が降っても
TTITLE3=太陽の匂い
TTITLE4=I HATE YOU
TTITLE5=Can't Get Enough
TTITLE6=白日夢
TTITLE7=愛してよ
TTITLE8=おまつり
TTITLE9=むらさきのひかり
EXTD=
EXTT0=
EXTT1=
EXTT2=
EXTT3=
EXTT4=
EXTT5=
EXTT6=
EXTT7=
EXTT8=
EXTT9=
PLAYORDER=
